<?xml version="1.0" standalone="no"?>
<!DOCTYPE svg PUBLIC "-//W3C//DTD SVG 20010904//EN"
 "http://www.w3.org/TR/2001/REC-SVG-20010904/DTD/svg10.dtd">
<svg version="1.0" xmlns="http://www.w3.org/2000/svg"
 width="512.000000pt" height="512.000000pt" viewBox="0 0 512.000000 512.000000"
 preserveAspectRatio="xMidYMid meet">

<g transform="translate(0.000000,512.000000) scale(0.100000,-0.100000)"
fill="#000000" stroke="none">
<path d="M960 5009 c-216 -42 -370 -269 -339 -497 9 -67 42 -154 65 -173 22
-18 17 -25 -39 -57 -100 -56 -182 -173 -208 -293 -7 -30 -9 -86 -6 -129 5 -61
13 -89 44 -151 l39 -76 -53 -28 c-68 -35 -134 -108 -176 -194 -30 -63 -32 -71
-32 -182 l0 -116 44 -88 44 -88 -29 -20 c-57 -40 -134 -129 -163 -190 -120
-247 1 -538 258 -617 60 -19 94 -20 672 -20 l609 0 -51 -76 c-152 -226 -259
-530 -288 -823 -16 -156 -14 -611 3 -692 77 -361 490 -516 774 -290 98 78 129
134 256 453 129 327 168 408 264 553 90 136 291 337 427 427 89 59 550 298
575 298 6 0 10 -17 10 -39 0 -52 51 -128 105 -155 39 -20 55 -21 445 -21 394
0 407 1 464 23 124 46 239 149 291 257 56 119 55 94 55 1320 0 957 -3 1141
-15 1200 -39 184 -174 333 -355 391 -47 15 -107 18 -411 22 -421 5 -450 1
-517 -62 -32 -31 -47 -55 -57 -91 -11 -44 -15 -50 -36 -47 -13 2 -208 50 -434
107 -438 110 -637 148 -860 165 -169 12 -1311 11 -1375 -1z m1480 -215 c179
-20 311 -49 700 -149 179 -47 368 -95 420 -107 l95 -23 2 -1170 3 -1170 -297
-149 c-400 -201 -563 -313 -734 -507 -198 -224 -273 -358 -449 -807 -85 -216
-111 -272 -144 -309 -131 -150 -359 -116 -454 67 l-34 65 5 355 c3 318 6 365
26 452 60 269 165 492 341 725 64 85 76 121 55 166 -9 19 -26 39 -38 46 -16 8
-226 12 -742 13 -716 3 -720 3 -760 25 -51 27 -79 57 -104 113 -46 102 -12
232 78 295 l43 30 358 5 c344 5 360 6 387 26 36 27 51 81 33 124 -23 56 -42
60 -321 60 -273 0 -306 5 -364 52 -56 47 -79 101 -79 183 0 102 47 180 133
218 17 8 152 14 404 17 l379 5 24 28 c26 30 33 92 14 127 -22 42 -44 45 -341
50 l-286 5 -41 28 c-65 43 -96 97 -100 177 -2 38 1 85 8 105 16 48 63 101 114
128 40 21 54 22 417 27 405 5 396 4 419 61 16 39 -1 103 -33 121 -16 9 -102
14 -297 18 -258 5 -278 6 -315 27 -187 100 -192 359 -10 444 38 17 78 19 695
19 531 0 681 -3 790 -16z m2200 -93 c61 -32 107 -76 138 -136 l27 -50 3 -1177
c2 -1167 2 -1177 -18 -1231 -24 -63 -80 -126 -138 -156 -66 -33 -153 -41 -479
-41 l-313 0 0 1410 0 1411 368 -3 c363 -3 367 -3 412 -27z"/>
</g>
</svg>
