<?xml version="1.0" standalone="no"?>
<!DOCTYPE svg PUBLIC "-//W3C//DTD SVG 20010904//EN"
 "http://www.w3.org/TR/2001/REC-SVG-20010904/DTD/svg10.dtd">
<svg version="1.0" xmlns="http://www.w3.org/2000/svg"
 width="512.000000pt" height="512.000000pt" viewBox="0 0 512.000000 512.000000"
 preserveAspectRatio="xMidYMid meet">

<g transform="translate(0.000000,512.000000) scale(0.100000,-0.100000)"
fill="#000000" stroke="none">
<path d="M257 4220 c-98 -25 -182 -95 -226 -189 -37 -79 -37 -191 0 -271 99
-213 366 -262 535 -98 202 195 74 544 -208 563 -34 2 -80 0 -101 -5z"/>
<path d="M2037 4219 c-96 -23 -182 -94 -225 -188 -37 -80 -38 -192 -1 -271 46
-97 134 -168 237 -189 76 -16 2730 -15 2804 0 72 15 116 39 168 91 66 66 94
136 94 233 0 65 -4 90 -26 136 -33 72 -94 134 -167 168 l-56 26 -1395 2 c-793
0 -1411 -3 -1433 -8z"/>
<path d="M214 2869 c-148 -56 -237 -218 -205 -371 53 -257 361 -357 550 -180
142 133 142 351 0 484 -91 85 -229 112 -345 67z"/>
<path d="M1993 2869 c-174 -67 -257 -275 -178 -447 35 -77 104 -143 181 -171
54 -21 67 -21 1454 -21 1382 0 1400 0 1454 20 105 40 183 133 207 248 32 154
-58 316 -207 372 -54 20 -71 20 -1457 19 -1377 0 -1403 0 -1454 -20z"/>
<path d="M255 1546 c-68 -17 -104 -37 -155 -88 -66 -65 -94 -136 -95 -233 0
-66 5 -90 26 -136 34 -73 96 -134 168 -167 79 -37 192 -38 271 -1 285 133 247
545 -57 624 -67 18 -90 18 -158 1z"/>
<path d="M2033 1546 c-95 -23 -176 -91 -221 -186 -38 -78 -38 -191 0 -271 33
-72 94 -134 167 -168 l56 -26 1415 0 1415 0 56 26 c73 34 134 96 167 168 22
46 26 71 26 136 0 97 -28 167 -94 233 -52 52 -96 76 -168 91 -81 17 -2748 14
-2819 -3z"/>
</g>
</svg>
