<?xml version="1.0" standalone="no"?>
<!DOCTYPE svg PUBLIC "-//W3C//DTD SVG 20010904//EN"
 "http://www.w3.org/TR/2001/REC-SVG-20010904/DTD/svg10.dtd">
<svg version="1.0" xmlns="http://www.w3.org/2000/svg"
 width="512.000000pt" height="512.000000pt" viewBox="0 0 512.000000 512.000000"
 preserveAspectRatio="xMidYMid meet">

<g transform="translate(0.000000,512.000000) scale(0.100000,-0.100000)"
fill="#000000" stroke="none">
<path d="M2548 4675 c-60 -22 -123 -71 -155 -119 -16 -24 -98 -223 -183 -443
-84 -219 -177 -447 -207 -508 -98 -196 -227 -376 -371 -518 l-79 -78 -6 81
c-11 146 -86 256 -203 299 -52 20 -76 21 -433 21 -452 0 -452 0 -547 -95 -103
-102 -95 20 -92 -1415 l3 -1245 24 -45 c32 -61 86 -116 146 -148 l50 -27 396
-3 c382 -3 398 -2 452 18 71 27 140 93 174 166 19 42 26 79 31 159 l7 104 105
-61 c297 -172 536 -251 835 -277 66 -6 385 -11 715 -11 635 0 678 3 771 50 54
28 142 111 173 164 72 123 74 309 5 422 l-19 31 52 24 c112 52 204 178 229
313 16 89 2 159 -57 292 -3 7 16 22 43 35 26 12 74 49 106 80 128 128 161 315
84 482 l-25 54 45 22 c56 27 145 110 177 165 74 127 74 305 0 432 -31 52 -118
136 -170 162 -92 47 -79 46 -884 52 l-766 5 114 370 c87 283 115 388 119 445
10 146 -44 288 -154 401 -107 111 -225 160 -383 158 -47 0 -102 -7 -122 -14z
m260 -225 c69 -30 144 -112 168 -182 33 -100 26 -140 -101 -548 -103 -332
-116 -382 -113 -433 5 -71 44 -131 108 -167 l45 -25 790 -5 c869 -5 815 -1
877 -67 99 -104 65 -273 -67 -334 -37 -17 -72 -19 -443 -19 -449 0 -456 -1
-486 -65 -20 -41 -20 -49 -1 -89 29 -60 29 -61 382 -66 l321 -5 44 -30 c124
-88 124 -262 0 -350 l-44 -30 -371 -5 c-273 -4 -378 -8 -394 -18 -71 -40 -71
-144 0 -184 15 -9 101 -14 288 -18 263 -5 266 -5 302 -30 21 -14 50 -43 65
-64 24 -35 27 -49 27 -116 0 -67 -3 -81 -27 -116 -15 -21 -44 -50 -65 -64
l-36 -25 -321 -5 c-346 -5 -353 -7 -381 -60 -19 -37 -19 -63 1 -101 26 -52 61
-59 274 -59 210 0 234 -6 292 -67 105 -110 55 -301 -89 -343 -27 -8 -243 -10
-738 -8 -785 5 -764 3 -996 84 -123 43 -171 66 -396 192 l-173 97 1 800 0 800
95 80 c219 183 416 437 550 710 35 72 124 289 199 483 169 442 170 444 203
465 37 24 139 18 210 -13z m-1528 -1267 c16 -9 33 -27 39 -40 16 -34 15 -2412
0 -2447 -6 -13 -25 -32 -43 -41 -27 -14 -71 -16 -383 -13 l-353 3 -27 28 -28
27 0 1219 c0 1205 0 1219 20 1241 11 12 29 26 40 31 11 4 175 8 363 8 304 1
347 -1 372 -16z"/>
</g>
</svg>
