<?xml version="1.0" standalone="no"?>
<!DOCTYPE svg PUBLIC "-//W3C//DTD SVG 20010904//EN"
 "http://www.w3.org/TR/2001/REC-SVG-20010904/DTD/svg10.dtd">
<svg version="1.0" xmlns="http://www.w3.org/2000/svg"
 width="50.000000pt" height="50.000000pt" viewBox="0 0 50.000000 50.000000"
 preserveAspectRatio="xMidYMid meet">

<g transform="translate(0.000000,50.000000) scale(0.100000,-0.100000)"
fill="#000000" stroke="none">
<path d="M220 423 c-1 -31 -10 -64 -25 -93 -13 -25 -24 -39 -25 -32 0 8 -22
12 -75 12 -54 0 -75 -4 -75 -12 0 -7 7 -60 15 -118 8 -58 15 -111 15 -117 0
-18 120 -18 120 -1 0 9 3 9 12 0 17 -17 229 -17 246 0 7 7 12 22 12 34 0 13 5
26 11 30 6 3 9 17 6 30 -2 14 0 27 5 30 5 3 8 16 7 27 -1 12 2 30 6 41 16 38
-6 51 -94 54 l-82 3 6 47 c8 60 -21 112 -60 112 -23 0 -25 -4 -25 -47z m56 2
c16 -25 16 -53 -2 -112 -6 -22 -4 -22 87 -25 65 -2 94 -7 97 -16 2 -7 -5 -16
-17 -19 -25 -6 -26 -12 -4 -28 18 -13 10 -35 -13 -35 -19 0 -18 -10 3 -25 19
-14 9 -35 -18 -35 -23 0 -24 -9 -2 -25 34 -25 4 -35 -103 -35 -63 0 -104 4
-104 10 0 6 -7 10 -15 10 -12 0 -15 15 -15 78 0 70 4 85 35 142 21 41 35 79
35 103 0 43 13 47 36 12z m-126 -245 l0 -110 -39 0 c-44 0 -44 0 -56 110 -3
30 -8 67 -11 83 -6 27 -5 27 50 27 l56 0 0 -110z"/>
<path d="M100 105 c0 -8 7 -15 15 -15 8 0 15 7 15 15 0 8 -7 15 -15 15 -8 0
-15 -7 -15 -15z"/>
</g>
</svg>
