<?xml version="1.0" standalone="no"?>
<!DOCTYPE svg PUBLIC "-//W3C//DTD SVG 20010904//EN"
 "http://www.w3.org/TR/2001/REC-SVG-20010904/DTD/svg10.dtd">
<svg version="1.0" xmlns="http://www.w3.org/2000/svg"
 width="50.000000pt" height="50.000000pt" viewBox="0 0 50.000000 50.000000"
 preserveAspectRatio="xMidYMid meet">

<g transform="translate(0.000000,50.000000) scale(0.100000,-0.100000)"
fill="#000000" stroke="none">
<path d="M220 425 c0 -24 -9 -67 -20 -96 -17 -43 -20 -70 -18 -163 l3 -111
114 -3 c121 -3 141 3 141 44 0 12 5 26 11 30 6 3 9 17 6 30 -2 14 0 27 5 30 5
3 8 16 7 27 -1 12 2 30 6 41 16 38 -6 51 -94 54 l-82 3 6 47 c8 60 -21 112
-60 112 -23 0 -25 -4 -25 -45z"/>
<path d="M20 298 c0 -7 7 -60 15 -118 8 -58 15 -111 15 -117 0 -9 18 -13 55
-13 l55 0 0 130 0 130 -70 0 c-50 0 -70 -4 -70 -12z m110 -193 c0 -8 -7 -15
-15 -15 -8 0 -15 7 -15 15 0 8 7 15 15 15 8 0 15 -7 15 -15z"/>
</g>
</svg>
